<?xml version="1.0" standalone="no"?>
<!DOCTYPE svg PUBLIC "-//W3C//DTD SVG 20010904//EN"
 "http://www.w3.org/TR/2001/REC-SVG-20010904/DTD/svg10.dtd">
<svg version="1.0" xmlns="http://www.w3.org/2000/svg"
 width="1080.000000pt" height="1080.000000pt" viewBox="0 0 1080.000000 1080.000000"
 preserveAspectRatio="xMidYMid meet">
<metadata>
Created by potrace 1.14, written by Peter Selinger 2001-2017
</metadata>
<g transform="translate(0.000000,1080.000000) scale(0.100000,-0.100000)"
fill="#000000" stroke="none">
<path d="M1250 5325 l0 -4675 585 0 585 0 0 4018 0 4017 1285 -2730 1284
-2730 379 -3 378 -2 1289 2721 1290 2721 3 -4006 2 -4006 630 0 630 0 0 4675
0 4675 -872 -2 -872 -3 -1200 -2592 c-660 -1426 -1202 -2591 -1204 -2588 -2 2
-562 1169 -1243 2592 l-1239 2588 -855 3 -855 2 0 -4675z"/>
</g>
</svg>
